# xmcd CD database file
#
# Track frame offsets:
#	150
#	18114
#	38124
#	55200
#	64494
#	76796
#	90134
#	110303
#	131400
#	154206
#	173361
#	193768
#	199396
#	221476
#	230326
#	250177
#
# Disc length: 3672 seconds
#
# Revision: 1
# Processed by: cddbd v1.5.1PL2 Copyright (c) Steve Scherf et al.
# Submitted via: CDex 1.51
#
DISCID=c80e5610
DTITLE=Didier Lockwood, Marcel Azzola, Martin Taylor et Jean-Philippe Viret - Waltz Club
DYEAR=2006
DGENRE=Jazz
TTITLE0=Double Scotch
TTITLE1=N 9 En La Bemol Majeur Op 69 - N 1 Valse De L'adieu
TTITLE2=La Javalseuse
TTITLE3=Valse Nostalgique
TTITLE4=La Traviata
TTITLE5=Indifférence
TTITLE6=La Plus Que Lente
TTITLE7=Bluesette
TTITLE8=La Ballade Irlandaise
TTITLE9=Musette For A Magpie
TTITLE10=La Javanaise
TTITLE11=Balajo
TTITLE12=Padam
TTITLE13=Sa Légitime
TTITLE14=A Dream Is A Wish Your Heart Makes
TTITLE15=Swing Valse - La Valse A La Quarte
EXTD=YEAR: 2006
EXTT0=
EXTT1=
EXTT2=
EXTT3=
EXTT4=
EXTT5=
EXTT6=
EXTT7=
EXTT8=
EXTT9=
EXTT10=
EXTT11=
EXTT12=
EXTT13=
EXTT14=
EXTT15=
PLAYORDER=
